<svg xmlns="http://www.w3.org/2000/svg" xmlns:xlink="http://www.w3.org/1999/xlink" width="500" zoomAndPan="magnify" viewBox="0 0 375 374.999991" height="500" preserveAspectRatio="xMidYMid meet" version="1.0"><defs><g/><clipPath id="339196b760"><path d="M 85 115 L 309.15625 115 L 309.15625 256.566406 L 85 256.566406 Z M 85 115 " clip-rule="nonzero"/></clipPath><clipPath id="878281c195"><path d="M 87 45.816406 L 121 45.816406 L 121 124 L 87 124 Z M 87 45.816406 " clip-rule="nonzero"/></clipPath><clipPath id="000a565710"><path d="M 273 45.816406 L 308 45.816406 L 308 124 L 273 124 Z M 273 45.816406 " clip-rule="nonzero"/></clipPath></defs><g clip-path="url(#339196b760)"><path fill="#146c43" d="M 259.167969 144.488281 L 247.871094 149.53125 C 240.585938 153.296875 233.28125 157.019531 226.308594 161.253906 C 212.1875 169.480469 198.714844 178.582031 185.671875 188.152344 C 172.492188 197.589844 159.601562 207.386719 146.847656 217.203125 C 140.480469 222.246094 133.9375 226.660156 127.414062 231.257812 L 126.359375 231.882812 C 128.152344 233.339844 129.992188 234.730469 131.875 236.097656 C 138.242188 231.570312 144.628906 227 150.726562 222.335938 C 163.613281 212.652344 176.523438 203.015625 189.683594 193.800781 C 202.863281 184.632812 216.425781 176.09375 230.410156 168.472656 C 244.421875 160.964844 258.96875 154.484375 274.097656 150.09375 C 285.640625 146.820312 297.410156 144.511719 309.222656 143.546875 L 309.222656 130.164062 C 296.019531 132.183594 283.132812 135.457031 270.78125 139.960938 C 266.878906 141.574219 262.890625 142.738281 259.167969 144.488281 Z M 268.425781 125.4375 C 264.570312 127.003906 260.625 128.214844 256.859375 129.941406 L 245.585938 134.960938 C 238.277344 138.726562 230.992188 142.492188 224 146.707031 C 214.808594 152.085938 205.820312 157.847656 197.101562 163.855469 C 188.382812 157.824219 179.394531 152.085938 170.203125 146.707031 C 163.234375 142.492188 155.925781 138.726562 148.640625 134.960938 L 137.34375 129.941406 C 133.601562 128.214844 129.632812 127.003906 125.824219 125.4375 C 112.710938 120.683594 99.015625 117.253906 85.027344 115.304688 L 85.027344 128.84375 C 97.625 129.648438 110.199219 132.027344 122.484375 135.542969 C 137.546875 139.9375 152.136719 146.417969 166.101562 153.925781 C 174.417969 158.453125 182.554688 163.292969 190.558594 168.40625 C 188.808594 169.636719 187.105469 170.847656 185.402344 172.125 C 179.6875 168.339844 173.835938 164.730469 167.894531 161.253906 C 160.925781 157.019531 153.617188 153.296875 146.308594 149.53125 L 135.035156 144.488281 C 131.292969 142.738281 127.324219 141.574219 123.46875 140.003906 C 111.097656 135.5 98.207031 132.226562 85.027344 130.210938 L 85.027344 143.589844 C 96.863281 144.535156 108.628906 146.84375 120.171875 150.136719 C 135.257812 154.53125 149.804688 161.007812 163.816406 168.515625 C 168.816406 171.230469 173.769531 174.078125 178.632812 177.035156 C 176.953125 178.269531 175.292969 179.476562 173.613281 180.710938 C 170.964844 179.03125 168.277344 177.460938 165.609375 175.871094 C 158.617188 171.632812 151.332031 167.910156 144.023438 164.144531 L 132.75 159.082031 C 128.984375 157.355469 125.039062 156.167969 121.183594 154.621094 C 109.527344 150.382812 97.398438 147.199219 85.027344 145.183594 C 85.027344 149.667969 85.296875 154.105469 85.832031 158.453125 C 96.617188 159.527344 107.328125 161.726562 117.863281 164.75 C 132.929688 169.144531 147.519531 175.578125 161.550781 183.132812 C 163.234375 184.050781 164.9375 185.015625 166.617188 185.933594 C 164.980469 187.144531 163.390625 188.355469 161.796875 189.566406 C 155.277344 185.6875 148.507812 182.234375 141.691406 178.738281 L 130.441406 173.671875 C 126.695312 171.945312 122.730469 170.757812 118.875 169.210938 C 108.269531 165.355469 97.289062 162.375 86.058594 160.335938 C 86.664062 164.863281 87.558594 169.324219 88.703125 173.648438 C 97.738281 174.816406 106.726562 176.765625 115.535156 179.300781 C 128.914062 183.199219 141.871094 188.667969 154.355469 195.167969 C 152.808594 196.355469 151.261719 197.542969 149.738281 198.6875 C 146.332031 196.851562 142.835938 195.058594 139.382812 193.308594 L 128.132812 188.21875 C 124.367188 186.515625 120.421875 185.304688 116.566406 183.757812 C 107.710938 180.578125 98.609375 177.976562 89.332031 175.980469 C 90.628906 180.597656 92.222656 185.082031 94.105469 189.40625 C 100.539062 190.597656 106.902344 192.097656 113.226562 193.890625 C 122.976562 196.691406 132.546875 200.4375 141.871094 204.761719 C 140.414062 205.882812 138.914062 206.980469 137.410156 208.078125 C 137.277344 208.011719 137.1875 207.945312 137.050781 207.878906 L 125.824219 202.722656 C 122.078125 201.019531 118.113281 199.785156 114.300781 198.261719 C 108.160156 196.019531 101.90625 194.070312 95.539062 192.480469 C 97.804688 197.296875 100.402344 201.9375 103.296875 206.355469 C 105.871094 206.980469 108.429688 207.675781 110.960938 208.394531 C 116.8125 210.121094 122.640625 212.113281 128.355469 214.421875 C 127.28125 215.183594 126.160156 215.949219 125.058594 216.710938 L 123.828125 217.449219 L 123.515625 217.316406 C 119.746094 215.589844 115.804688 214.378906 111.949219 212.855469 C 110.109375 212.183594 108.269531 211.53125 106.433594 210.925781 C 110.738281 216.777344 115.554688 222.246094 120.867188 227.175781 L 121.046875 227.066406 L 128.667969 222.15625 C 129.410156 221.640625 130.148438 221.148438 130.867188 220.609375 C 132.367188 219.511719 133.871094 218.4375 135.371094 217.382812 C 138.195312 215.34375 141.019531 213.300781 143.777344 211.261719 C 145.324219 210.121094 146.847656 208.933594 148.371094 207.789062 L 148.394531 207.789062 C 150.949219 205.882812 153.460938 203.976562 156.015625 202.074219 C 157.628906 200.863281 159.199219 199.695312 160.789062 198.507812 C 163.1875 196.691406 165.585938 194.921875 167.960938 193.195312 C 169.644531 191.964844 171.28125 190.777344 172.9375 189.566406 C 175.226562 187.882812 177.535156 186.203125 179.820312 184.589844 C 181.546875 183.3125 183.226562 182.101562 184.976562 180.890625 C 185.761719 180.351562 186.542969 179.816406 187.308594 179.230469 C 188.742188 178.246094 190.175781 177.238281 191.65625 176.273438 C 193.449219 175.039062 195.265625 173.828125 197.058594 172.621094 C 199.230469 171.183594 201.40625 169.773438 203.601562 168.382812 C 211.605469 163.273438 219.742188 158.429688 228.035156 153.902344 C 242.023438 146.394531 256.59375 139.914062 271.675781 135.523438 C 283.960938 132.027344 296.511719 129.648438 309.132812 128.820312 L 309.132812 115.304688 C 295.191406 117.253906 281.515625 120.660156 268.425781 125.4375 Z M 261.457031 159.035156 L 250.179688 164.101562 C 242.875 167.867188 235.613281 171.589844 228.59375 175.824219 C 214.519531 184.050781 201.003906 193.128906 187.957031 202.722656 C 174.777344 212.160156 161.933594 221.953125 149.15625 231.773438 C 145.546875 234.597656 141.917969 237.242188 138.21875 239.84375 C 138.105469 239.933594 137.972656 240 137.859375 240.089844 C 139.855469 241.34375 141.894531 242.53125 143.957031 243.652344 C 144.15625 243.496094 144.382812 243.359375 144.582031 243.203125 C 147.453125 241.097656 150.253906 239.035156 153.058594 236.90625 C 165.902344 227.175781 178.8125 217.582031 191.945312 208.371094 C 205.125 199.203125 218.6875 190.664062 232.675781 183.042969 C 246.707031 175.488281 261.253906 169.054688 276.363281 164.660156 C 286.875 161.660156 297.613281 159.460938 308.394531 158.363281 C 308.929688 154.015625 309.199219 149.578125 309.199219 145.09375 C 296.828125 147.132812 284.699219 150.292969 273.042969 154.53125 C 269.167969 156.121094 265.199219 157.308594 261.457031 159.035156 Z M 263.742188 173.605469 L 252.511719 178.671875 C 245.183594 182.414062 237.898438 186.15625 230.925781 190.394531 C 216.804688 198.597656 203.289062 207.699219 190.265625 217.292969 C 177.0625 226.730469 164.21875 236.503906 151.441406 246.320312 C 151.242188 246.453125 151.085938 246.613281 150.90625 246.746094 C 150.816406 246.8125 150.726562 246.878906 150.636719 246.949219 C 152.898438 247.980469 155.1875 248.941406 157.539062 249.816406 C 169.667969 240.648438 181.882812 231.617188 194.300781 222.941406 C 207.457031 213.730469 221.042969 205.253906 234.984375 197.613281 C 249.015625 190.058594 263.585938 183.582031 278.671875 179.210938 C 287.523438 176.675781 296.511719 174.726562 305.523438 173.5625 C 306.667969 169.210938 307.5625 164.75 308.167969 160.222656 C 296.9375 162.285156 285.957031 165.265625 275.332031 169.121094 C 271.476562 170.691406 267.484375 171.878906 263.742188 173.605469 Z M 266.074219 188.152344 L 254.796875 193.242188 C 247.492188 196.984375 240.207031 200.726562 233.214844 204.964844 C 219.113281 213.144531 205.597656 222.269531 192.550781 231.863281 C 183.203125 238.542969 174.039062 245.378906 164.914062 252.328125 C 167.605469 253.15625 170.339844 253.875 173.117188 254.457031 C 180.851562 248.71875 188.652344 243.046875 196.542969 237.488281 C 209.746094 228.320312 223.28125 219.824219 237.269531 212.203125 C 251.257812 204.652344 265.828125 198.171875 280.914062 193.800781 C 287.234375 191.984375 293.597656 190.484375 300.03125 189.320312 C 301.914062 184.992188 303.484375 180.507812 304.808594 175.890625 C 295.527344 177.886719 286.425781 180.488281 277.574219 183.671875 C 273.761719 185.238281 269.816406 186.472656 266.074219 188.152344 Z M 268.359375 202.722656 L 257.085938 207.789062 C 249.800781 211.554688 242.492188 215.296875 235.523438 219.535156 C 221.398438 227.714844 207.929688 236.839844 194.839844 246.433594 C 190.46875 249.570312 186.097656 252.753906 181.769531 255.980469 C 185.109375 256.429688 188.539062 256.742188 191.96875 256.898438 C 194.253906 255.261719 196.542969 253.648438 198.828125 252.035156 C 212.03125 242.867188 225.570312 234.371094 239.578125 226.730469 C 253.589844 219.175781 268.113281 212.71875 283.199219 208.347656 C 285.730469 207.632812 288.285156 206.9375 290.84375 206.332031 C 293.757812 201.894531 296.332031 197.253906 298.621094 192.433594 C 292.253906 194.046875 286.023438 196 279.902344 198.21875 C 276.09375 199.785156 272.101562 201.042969 268.359375 202.722656 Z M 270.667969 217.316406 L 259.394531 222.359375 C 252.085938 226.144531 244.777344 229.867188 237.808594 234.105469 C 225.75 241.140625 214.09375 248.832031 202.796875 256.921875 C 208.242188 256.652344 213.601562 255.980469 218.800781 254.949219 C 226.355469 250.152344 234.042969 245.601562 241.886719 241.34375 C 252.152344 235.808594 262.734375 230.875 273.582031 226.886719 C 278.78125 222.042969 283.511719 216.710938 287.703125 210.949219 C 285.867188 211.53125 284.027344 212.203125 282.234375 212.855469 C 278.378906 214.355469 274.390625 215.589844 270.667969 217.316406 Z M 259.753906 237.914062 C 253.386719 241.140625 247.089844 244.460938 240.96875 248.113281 C 247.582031 245.332031 253.878906 241.882812 259.753906 237.914062 Z M 259.753906 237.914062 " fill-opacity="1" fill-rule="nonzero"/></g><g clip-path="url(#878281c195)"><path fill="#146c43" d="M 108.675781 96.320312 C 107.0625 96.945312 105.828125 98.3125 105.378906 100.015625 L 105.042969 102.035156 L 105.042969 93.898438 L 115.445312 89.929688 C 116.992188 89.347656 118.203125 88.070312 118.71875 86.476562 L 120.53125 77.691406 L 108.5625 82.375 C 106.949219 83.003906 105.714844 84.394531 105.269531 86.074219 L 105.066406 87.285156 L 105.066406 79.886719 L 115.332031 75.988281 C 116.902344 75.382812 118.089844 74.128906 118.605469 72.535156 L 120.421875 63.75 L 108.449219 68.457031 C 106.8125 69.085938 105.605469 70.453125 105.15625 72.15625 L 105.089844 72.625 L 105.089844 66.171875 C 106.746094 64.308594 109.660156 60.96875 110.558594 59.511719 C 111.8125 57.429688 103.921875 45.90625 103.921875 45.90625 C 103.921875 45.90625 96.054688 57.429688 97.308594 59.511719 C 98.183594 60.96875 101.097656 64.308594 102.757812 66.171875 L 102.757812 74.148438 L 102.421875 72.175781 C 101.972656 70.496094 100.738281 69.105469 99.125 68.480469 L 87.15625 63.773438 L 88.972656 72.558594 C 89.488281 74.148438 90.675781 75.425781 92.246094 76.011719 L 102.757812 80.023438 L 102.757812 87.308594 L 102.554688 86.097656 C 102.105469 84.417969 100.875 83.027344 99.261719 82.398438 L 87.289062 77.714844 L 89.105469 86.5 C 89.621094 88.09375 90.808594 89.371094 92.378906 89.953125 L 102.757812 93.921875 L 102.757812 100.464844 L 102.691406 100.039062 C 102.242188 98.359375 101.007812 96.992188 99.394531 96.339844 L 87.425781 91.632812 L 89.242188 100.421875 C 89.757812 102.011719 90.945312 103.289062 92.511719 103.871094 L 102.78125 107.773438 L 102.78125 123.800781 L 105.109375 123.800781 L 105.109375 107.863281 L 115.625 103.851562 C 117.191406 103.246094 118.378906 101.988281 118.894531 100.398438 L 120.710938 91.609375 Z M 111.878906 88.40625 C 112.730469 88.046875 113.582031 87.710938 114.4375 87.398438 C 115.199219 87.128906 115.824219 86.523438 116.140625 85.761719 L 116.140625 85.738281 C 116.320312 85.019531 116.496094 84.304688 116.699219 83.585938 C 116.8125 83.226562 116.921875 82.847656 117.035156 82.488281 C 117.148438 82.128906 117.261719 81.75 117.371094 81.390625 C 117.347656 81.769531 117.304688 82.152344 117.261719 82.53125 C 117.214844 82.914062 117.191406 83.296875 117.125 83.652344 C 117.011719 84.394531 116.902344 85.15625 116.789062 85.894531 L 116.765625 85.941406 C 116.453125 86.902344 115.667969 87.734375 114.703125 88.09375 C 113.851562 88.429688 112.980469 88.742188 112.125 89.054688 C 110.402344 89.660156 108.628906 90.222656 106.835938 90.691406 C 108.496094 89.839844 110.175781 89.101562 111.878906 88.40625 Z M 111.746094 74.464844 C 112.597656 74.105469 113.449219 73.769531 114.300781 73.453125 C 115.0625 73.1875 115.691406 72.582031 116.003906 71.796875 C 116.183594 71.078125 116.363281 70.363281 116.566406 69.644531 C 116.65625 69.285156 116.765625 68.925781 116.878906 68.546875 C 116.992188 68.1875 117.101562 67.804688 117.214844 67.449219 C 117.191406 67.828125 117.148438 68.210938 117.101562 68.589844 C 117.058594 68.972656 117.011719 69.351562 116.96875 69.710938 C 116.855469 70.472656 116.746094 71.214844 116.632812 71.953125 L 116.632812 71.976562 C 116.320312 72.941406 115.535156 73.769531 114.570312 74.128906 C 113.695312 74.464844 112.84375 74.777344 111.96875 75.089844 C 110.242188 75.71875 108.496094 76.257812 106.679688 76.726562 C 108.359375 75.898438 110.042969 75.160156 111.746094 74.464844 Z M 95.515625 75.136719 C 94.644531 74.824219 93.792969 74.507812 92.941406 74.171875 C 91.976562 73.8125 91.191406 73.007812 90.878906 72.019531 L 90.878906 72 C 90.765625 71.257812 90.628906 70.496094 90.542969 69.757812 C 90.496094 69.375 90.453125 68.996094 90.40625 68.636719 C 90.363281 68.253906 90.316406 67.875 90.292969 67.492188 C 90.429688 67.851562 90.542969 68.210938 90.628906 68.589844 C 90.742188 68.949219 90.855469 69.308594 90.96875 69.6875 C 91.167969 70.40625 91.347656 71.144531 91.550781 71.863281 C 91.550781 71.863281 91.527344 71.839844 91.527344 71.839844 L 91.550781 71.886719 C 91.863281 72.648438 92.492188 73.230469 93.230469 73.5 C 94.105469 73.8125 94.957031 74.148438 95.785156 74.507812 C 97.488281 75.203125 99.171875 75.964844 100.808594 76.816406 C 98.992188 76.300781 97.242188 75.742188 95.515625 75.136719 Z M 95.628906 89.078125 C 94.753906 88.765625 93.902344 88.449219 93.027344 88.113281 C 92.066406 87.753906 91.28125 86.949219 90.96875 85.960938 L 90.96875 85.917969 C 90.832031 85.179688 90.71875 84.417969 90.628906 83.675781 C 90.585938 83.296875 90.542969 82.914062 90.496094 82.554688 C 90.453125 82.175781 90.40625 81.792969 90.382812 81.414062 C 90.519531 81.769531 90.609375 82.128906 90.71875 82.511719 C 90.832031 82.871094 90.945312 83.226562 91.035156 83.609375 C 91.234375 84.328125 91.414062 85.042969 91.59375 85.761719 C 91.886719 86.546875 92.535156 87.128906 93.296875 87.417969 C 94.148438 87.757812 95 88.070312 95.851562 88.429688 C 97.558594 89.125 99.238281 89.886719 100.875 90.738281 C 99.125 90.242188 97.378906 89.683594 95.628906 89.078125 Z M 95.765625 103.019531 C 94.890625 102.707031 94.039062 102.394531 93.1875 102.058594 C 92.222656 101.699219 91.4375 100.890625 91.125 99.90625 L 91.125 99.882812 C 91.011719 99.144531 90.878906 98.378906 90.789062 97.640625 C 90.742188 97.261719 90.699219 96.902344 90.652344 96.519531 C 90.609375 96.140625 90.5625 95.757812 90.542969 95.398438 C 90.675781 95.757812 90.789062 96.117188 90.878906 96.476562 C 90.988281 96.832031 91.101562 97.191406 91.214844 97.574219 C 91.414062 98.289062 91.59375 99.007812 91.773438 99.746094 C 92.085938 100.511719 92.714844 101.09375 93.476562 101.382812 C 94.351562 101.699219 95.203125 102.035156 96.03125 102.394531 C 97.738281 103.085938 99.417969 103.851562 101.054688 104.679688 C 99.261719 104.1875 97.488281 103.625 95.765625 103.019531 Z M 101.03125 61.058594 C 100.5625 60.609375 100.089844 59.960938 99.867188 59.289062 C 99.621094 58.59375 99.597656 57.832031 99.707031 57.113281 C 99.777344 56.753906 99.886719 56.398438 100.066406 56.082031 C 100.222656 55.769531 100.382812 55.476562 100.539062 55.164062 C 100.875 54.582031 101.1875 53.976562 101.546875 53.414062 C 102.265625 52.273438 103.027344 51.152344 103.878906 50.121094 C 103.296875 51.332031 102.691406 52.542969 102.085938 53.730469 L 101.1875 55.523438 L 100.761719 56.417969 C 100.628906 56.6875 100.539062 56.980469 100.492188 57.292969 C 100.359375 57.875 100.402344 58.503906 100.582031 59.085938 C 100.761719 59.691406 101.078125 60.164062 101.523438 60.699219 C 102.308594 61.6875 103.046875 62.695312 103.765625 63.75 C 103.8125 63.816406 103.855469 63.882812 103.902344 63.949219 C 103.832031 63.882812 103.765625 63.816406 103.699219 63.75 C 102.78125 62.875 101.882812 61.980469 101.03125 61.058594 Z M 117.394531 96.476562 C 117.347656 96.855469 117.328125 97.238281 117.261719 97.597656 C 117.148438 98.359375 117.035156 99.097656 116.921875 99.835938 L 116.921875 99.882812 C 116.609375 100.847656 115.824219 101.675781 114.863281 102.011719 C 113.988281 102.347656 113.136719 102.660156 112.261719 102.976562 C 110.535156 103.582031 108.785156 104.140625 106.972656 104.589844 C 108.609375 103.738281 110.289062 103 111.992188 102.304688 C 112.84375 101.945312 113.695312 101.609375 114.546875 101.292969 C 115.308594 101.027344 115.9375 100.421875 116.25 99.636719 C 116.429688 98.917969 116.609375 98.203125 116.8125 97.484375 C 116.902344 97.125 117.011719 96.765625 117.125 96.386719 C 117.238281 96.027344 117.347656 95.667969 117.460938 95.308594 C 117.484375 95.734375 117.417969 96.117188 117.394531 96.476562 Z M 117.394531 96.476562 " fill-opacity="1" fill-rule="nonzero"/></g><path fill="#146c43" d="M 145.703125 111.472656 C 144.089844 112.097656 142.859375 113.464844 142.410156 115.167969 L 142.074219 117.1875 L 142.074219 109.050781 L 152.472656 105.082031 C 154.019531 104.5 155.230469 103.222656 155.746094 101.628906 L 157.5625 92.84375 L 145.59375 97.527344 C 143.980469 98.15625 142.746094 99.546875 142.296875 101.226562 L 142.097656 102.4375 L 142.097656 95.039062 L 152.363281 91.140625 C 153.929688 90.535156 155.117188 89.28125 155.632812 87.6875 L 157.449219 78.902344 L 145.480469 83.609375 C 143.84375 84.238281 142.632812 85.605469 142.183594 87.308594 L 142.117188 87.777344 L 142.117188 81.324219 C 143.777344 79.460938 146.691406 76.121094 147.585938 74.664062 C 148.84375 72.582031 140.953125 61.058594 140.953125 61.058594 C 140.953125 61.058594 133.085938 72.582031 134.339844 74.664062 C 135.214844 76.121094 138.128906 79.460938 139.785156 81.324219 L 139.785156 89.300781 L 139.449219 87.328125 C 139.003906 85.648438 137.769531 84.257812 136.15625 83.632812 L 124.1875 78.925781 L 126 87.710938 C 126.515625 89.300781 127.707031 90.582031 129.273438 91.164062 L 139.785156 95.175781 L 139.785156 102.460938 L 139.585938 101.25 C 139.136719 99.570312 137.902344 98.179688 136.289062 97.550781 L 124.320312 92.867188 L 126.136719 101.652344 C 126.652344 103.246094 127.839844 104.523438 129.410156 105.105469 L 139.785156 109.074219 L 139.785156 115.617188 L 139.71875 115.191406 C 139.269531 113.511719 138.039062 112.144531 136.425781 111.492188 L 124.457031 106.785156 L 126.269531 115.574219 C 126.785156 117.164062 127.972656 118.441406 129.542969 119.023438 L 139.808594 122.925781 L 139.808594 138.953125 L 142.140625 138.953125 L 142.140625 123.015625 L 152.652344 119.003906 C 154.222656 118.398438 155.410156 117.140625 155.925781 115.550781 L 157.742188 106.765625 Z M 148.886719 103.582031 C 149.738281 103.222656 150.589844 102.886719 151.441406 102.570312 C 152.203125 102.304688 152.832031 101.699219 153.144531 100.9375 L 153.144531 100.914062 C 153.324219 100.195312 153.503906 99.480469 153.707031 98.761719 C 153.820312 98.402344 153.929688 98.023438 154.042969 97.664062 C 154.15625 97.304688 154.265625 96.921875 154.378906 96.566406 C 154.355469 96.945312 154.3125 97.328125 154.265625 97.707031 C 154.222656 98.089844 154.199219 98.46875 154.132812 98.828125 C 154.019531 99.570312 153.910156 100.332031 153.796875 101.070312 L 153.773438 101.113281 C 153.460938 102.078125 152.675781 102.910156 151.710938 103.265625 C 150.859375 103.601562 149.984375 103.917969 149.132812 104.230469 C 147.40625 104.835938 145.636719 105.398438 143.84375 105.867188 C 145.503906 105.015625 147.183594 104.253906 148.886719 103.582031 Z M 148.753906 89.640625 C 149.605469 89.28125 150.457031 88.945312 151.308594 88.628906 C 152.070312 88.359375 152.699219 87.753906 153.011719 86.972656 C 153.191406 86.253906 153.371094 85.535156 153.574219 84.820312 C 153.660156 84.460938 153.773438 84.101562 153.886719 83.722656 C 154 83.363281 154.109375 82.980469 154.222656 82.621094 C 154.199219 83.003906 154.15625 83.386719 154.109375 83.765625 C 154.066406 84.148438 154.019531 84.527344 153.976562 84.886719 C 153.863281 85.648438 153.75 86.386719 153.640625 87.128906 L 153.640625 87.152344 C 153.324219 88.113281 152.542969 88.945312 151.578125 89.300781 C 150.703125 89.640625 149.851562 89.953125 148.976562 90.265625 C 147.25 90.894531 145.503906 91.433594 143.6875 91.902344 C 145.367188 91.074219 147.050781 90.332031 148.753906 89.640625 Z M 132.523438 90.289062 C 131.648438 89.976562 130.796875 89.660156 129.945312 89.324219 C 128.984375 88.964844 128.199219 88.160156 127.882812 87.171875 L 127.882812 87.152344 C 127.773438 86.410156 127.636719 85.648438 127.546875 84.910156 C 127.503906 84.527344 127.457031 84.148438 127.414062 83.789062 C 127.367188 83.40625 127.324219 83.027344 127.300781 82.644531 C 127.4375 83.003906 127.546875 83.363281 127.636719 83.742188 C 127.75 84.101562 127.863281 84.460938 127.972656 84.84375 C 128.175781 85.558594 128.355469 86.300781 128.558594 87.015625 C 128.558594 87.015625 128.535156 86.992188 128.535156 86.992188 L 128.558594 87.039062 C 128.871094 87.800781 129.5 88.382812 130.238281 88.652344 C 131.113281 88.964844 131.964844 89.300781 132.792969 89.660156 C 134.496094 90.355469 136.179688 91.117188 137.816406 91.96875 C 136.019531 91.476562 134.25 90.917969 132.523438 90.289062 Z M 132.660156 104.230469 C 131.785156 103.917969 130.933594 103.601562 130.058594 103.265625 C 129.09375 102.910156 128.308594 102.101562 127.996094 101.117188 L 127.996094 101.070312 C 127.863281 100.332031 127.75 99.570312 127.660156 98.828125 C 127.617188 98.449219 127.570312 98.066406 127.527344 97.707031 C 127.480469 97.328125 127.4375 96.945312 127.414062 96.566406 C 127.546875 96.921875 127.636719 97.28125 127.75 97.664062 C 127.863281 98.023438 127.972656 98.378906 128.0625 98.761719 C 128.265625 99.480469 128.445312 100.195312 128.625 100.914062 C 128.914062 101.699219 129.566406 102.28125 130.328125 102.570312 C 131.179688 102.910156 132.03125 103.222656 132.882812 103.582031 C 134.585938 104.277344 136.269531 105.039062 137.902344 105.890625 C 136.132812 105.417969 134.386719 104.859375 132.660156 104.230469 Z M 132.769531 118.171875 C 131.898438 117.859375 131.046875 117.546875 130.191406 117.210938 C 129.230469 116.851562 128.445312 116.042969 128.132812 115.058594 L 128.132812 115.035156 C 128.019531 114.296875 127.882812 113.53125 127.796875 112.792969 C 127.75 112.414062 127.707031 112.054688 127.660156 111.671875 C 127.617188 111.292969 127.570312 110.910156 127.546875 110.550781 C 127.683594 110.910156 127.796875 111.269531 127.882812 111.628906 C 127.996094 111.988281 128.109375 112.34375 128.222656 112.726562 C 128.421875 113.445312 128.601562 114.160156 128.78125 114.902344 C 129.09375 115.664062 129.722656 116.246094 130.484375 116.535156 C 131.359375 116.851562 132.210938 117.1875 133.039062 117.546875 C 134.742188 118.242188 136.425781 119.003906 138.0625 119.832031 C 136.269531 119.359375 134.519531 118.800781 132.769531 118.171875 Z M 138.0625 76.234375 C 137.589844 75.785156 137.121094 75.136719 136.894531 74.464844 C 136.648438 73.769531 136.625 73.007812 136.738281 72.289062 C 136.804688 71.929688 136.917969 71.570312 137.097656 71.257812 C 137.253906 70.945312 137.410156 70.652344 137.566406 70.339844 C 137.902344 69.757812 138.21875 69.152344 138.578125 68.589844 C 139.292969 67.449219 140.054688 66.328125 140.90625 65.296875 C 140.324219 66.507812 139.71875 67.714844 139.113281 68.90625 L 138.21875 70.699219 L 137.792969 71.59375 C 137.65625 71.863281 137.566406 72.15625 137.523438 72.46875 C 137.386719 73.050781 137.433594 73.679688 137.613281 74.261719 C 137.792969 74.867188 138.105469 75.339844 138.554688 75.875 C 139.339844 76.863281 140.078125 77.871094 140.796875 78.925781 C 140.839844 78.992188 140.886719 79.058594 140.929688 79.125 C 140.863281 79.058594 140.796875 78.992188 140.726562 78.925781 C 139.785156 78.050781 138.890625 77.152344 138.0625 76.234375 Z M 154.402344 111.648438 C 154.355469 112.03125 154.335938 112.414062 154.265625 112.769531 C 154.15625 113.53125 154.042969 114.273438 153.929688 115.011719 L 153.929688 115.058594 C 153.617188 116.019531 152.832031 116.851562 151.867188 117.1875 C 150.996094 117.523438 150.144531 117.835938 149.269531 118.152344 C 147.542969 118.757812 145.792969 119.316406 143.980469 119.765625 C 145.613281 118.914062 147.296875 118.171875 149 117.476562 C 149.851562 117.121094 150.703125 116.785156 151.554688 116.46875 C 152.316406 116.199219 152.945312 115.59375 153.257812 114.8125 C 153.4375 114.09375 153.617188 113.375 153.820312 112.660156 C 153.910156 112.300781 154.019531 111.941406 154.132812 111.5625 C 154.246094 111.203125 154.355469 110.84375 154.46875 110.484375 C 154.492188 110.910156 154.445312 111.292969 154.402344 111.648438 Z M 154.402344 111.648438 " fill-opacity="1" fill-rule="nonzero"/><path fill="#146c43" d="M 182.710938 126.644531 C 181.097656 127.273438 179.863281 128.640625 179.417969 130.34375 L 179.082031 132.363281 L 179.082031 124.226562 L 189.480469 120.257812 C 191.027344 119.675781 192.238281 118.398438 192.753906 116.804688 L 194.570312 108.019531 L 182.601562 112.703125 C 180.984375 113.332031 179.753906 114.722656 179.304688 116.402344 L 179.101562 117.613281 L 179.101562 110.214844 L 189.367188 106.316406 C 190.9375 105.710938 192.125 104.457031 192.640625 102.863281 L 194.457031 94.078125 L 182.488281 98.785156 C 180.851562 99.410156 179.640625 100.777344 179.191406 102.484375 L 179.125 102.953125 L 179.125 96.476562 C 180.785156 94.613281 183.699219 91.273438 184.59375 89.816406 C 185.851562 87.734375 177.960938 76.210938 177.960938 76.210938 C 177.960938 76.210938 170.09375 87.734375 171.347656 89.816406 C 172.222656 91.273438 175.136719 94.613281 176.792969 96.476562 L 176.792969 104.457031 L 176.457031 102.484375 C 176.007812 100.800781 174.777344 99.410156 173.164062 98.785156 L 161.195312 94.078125 L 163.007812 102.863281 C 163.523438 104.453125 164.710938 105.734375 166.28125 106.316406 L 176.792969 110.328125 L 176.792969 117.613281 L 176.59375 116.402344 C 176.144531 114.722656 174.910156 113.332031 173.296875 112.703125 L 161.328125 108.019531 L 163.144531 116.804688 C 163.660156 118.398438 164.847656 119.675781 166.417969 120.257812 L 176.792969 124.226562 L 176.792969 130.769531 L 176.726562 130.34375 C 176.277344 128.664062 175.046875 127.296875 173.433594 126.644531 L 161.460938 121.9375 L 163.277344 130.726562 C 163.792969 132.316406 164.980469 133.59375 166.550781 134.175781 L 176.816406 138.078125 L 176.816406 154.105469 L 179.148438 154.105469 L 179.148438 138.167969 L 189.660156 134.15625 C 191.230469 133.550781 192.417969 132.292969 192.933594 130.703125 L 194.75 121.917969 Z M 185.894531 118.734375 C 186.746094 118.375 187.597656 118.039062 188.449219 117.726562 C 189.210938 117.457031 189.839844 116.851562 190.152344 116.089844 L 190.152344 116.066406 C 190.332031 115.347656 190.511719 114.632812 190.714844 113.914062 C 190.824219 113.554688 190.9375 113.175781 191.050781 112.816406 C 191.164062 112.457031 191.273438 112.078125 191.386719 111.71875 C 191.363281 112.097656 191.320312 112.480469 191.273438 112.859375 C 191.230469 113.242188 191.207031 113.621094 191.140625 113.980469 C 191.027344 114.722656 190.914062 115.484375 190.804688 116.222656 L 190.78125 116.269531 C 190.46875 117.230469 189.683594 118.0625 188.71875 118.417969 C 187.867188 118.757812 186.992188 119.070312 186.140625 119.382812 C 184.414062 119.988281 182.644531 120.550781 180.851562 121.019531 C 182.53125 120.191406 184.191406 119.429688 185.894531 118.734375 Z M 185.78125 104.792969 C 186.632812 104.433594 187.484375 104.097656 188.339844 103.78125 C 189.101562 103.511719 189.726562 102.910156 190.042969 102.125 C 190.222656 101.40625 190.398438 100.6875 190.601562 99.972656 C 190.691406 99.613281 190.804688 99.253906 190.914062 98.875 C 191.027344 98.515625 191.140625 98.132812 191.253906 97.773438 C 191.230469 98.15625 191.183594 98.539062 191.140625 98.917969 C 191.09375 99.300781 191.050781 99.679688 191.003906 100.039062 C 190.894531 100.800781 190.78125 101.542969 190.667969 102.28125 L 190.667969 102.304688 C 190.355469 103.265625 189.570312 104.097656 188.605469 104.453125 C 187.734375 104.792969 186.882812 105.105469 186.007812 105.417969 C 184.28125 106.046875 182.53125 106.585938 180.71875 107.054688 C 182.398438 106.25 184.078125 105.507812 185.78125 104.792969 Z M 169.53125 105.464844 C 168.65625 105.148438 167.804688 104.835938 166.953125 104.5 C 165.988281 104.140625 165.207031 103.335938 164.890625 102.347656 L 164.890625 102.324219 C 164.78125 101.585938 164.644531 100.824219 164.554688 100.085938 C 164.511719 99.703125 164.464844 99.320312 164.421875 98.964844 C 164.375 98.582031 164.332031 98.203125 164.308594 97.820312 C 164.445312 98.179688 164.554688 98.539062 164.644531 98.917969 C 164.757812 99.277344 164.871094 99.636719 164.980469 100.015625 C 165.183594 100.734375 165.363281 101.472656 165.5625 102.191406 C 165.5625 102.191406 165.542969 102.167969 165.542969 102.167969 L 165.5625 102.214844 C 165.878906 102.976562 166.503906 103.558594 167.246094 103.828125 C 168.121094 104.140625 168.972656 104.476562 169.800781 104.835938 C 171.503906 105.53125 173.183594 106.292969 174.820312 107.144531 C 173.027344 106.652344 171.28125 106.089844 169.53125 105.464844 Z M 169.667969 119.40625 C 168.792969 119.09375 167.941406 118.777344 167.066406 118.441406 C 166.101562 118.082031 165.316406 117.277344 165.003906 116.289062 L 165.003906 116.246094 C 164.871094 115.503906 164.757812 114.742188 164.667969 114.003906 C 164.621094 113.621094 164.578125 113.242188 164.535156 112.882812 C 164.488281 112.503906 164.445312 112.121094 164.421875 111.738281 C 164.554688 112.097656 164.644531 112.457031 164.757812 112.839844 C 164.871094 113.195312 164.980469 113.554688 165.070312 113.9375 C 165.273438 114.652344 165.453125 115.371094 165.632812 116.089844 C 165.921875 116.871094 166.574219 117.457031 167.335938 117.746094 C 168.1875 118.082031 169.039062 118.398438 169.890625 118.757812 C 171.59375 119.449219 173.273438 120.210938 174.910156 121.066406 C 173.164062 120.570312 171.414062 120.035156 169.667969 119.40625 Z M 169.800781 133.347656 C 168.925781 133.035156 168.074219 132.71875 167.222656 132.382812 C 166.257812 132.027344 165.476562 131.21875 165.160156 130.230469 L 165.160156 130.210938 C 165.046875 129.46875 164.914062 128.707031 164.824219 127.96875 C 164.78125 127.585938 164.734375 127.230469 164.691406 126.847656 C 164.644531 126.464844 164.601562 126.085938 164.578125 125.726562 C 164.710938 126.085938 164.824219 126.445312 164.914062 126.804688 C 165.027344 127.160156 165.136719 127.519531 165.25 127.902344 C 165.453125 128.617188 165.632812 129.335938 165.8125 130.074219 C 166.125 130.835938 166.753906 131.421875 167.515625 131.710938 C 168.386719 132.027344 169.242188 132.363281 170.070312 132.71875 C 171.773438 133.414062 173.453125 134.175781 175.089844 135.007812 C 173.273438 134.515625 171.527344 133.953125 169.800781 133.347656 Z M 175.066406 91.410156 C 174.597656 90.960938 174.125 90.3125 173.902344 89.640625 C 173.65625 88.945312 173.632812 88.183594 173.746094 87.464844 C 173.8125 87.105469 173.925781 86.746094 174.105469 86.433594 C 174.261719 86.121094 174.417969 85.828125 174.574219 85.515625 C 174.910156 84.929688 175.226562 84.328125 175.582031 83.765625 C 176.300781 82.621094 177.0625 81.503906 177.914062 80.472656 C 177.332031 81.679688 176.726562 82.890625 176.121094 84.078125 L 175.226562 85.871094 L 174.800781 86.769531 C 174.664062 87.039062 174.574219 87.328125 174.53125 87.644531 C 174.394531 88.226562 174.441406 88.855469 174.621094 89.4375 C 174.800781 90.042969 175.113281 90.511719 175.5625 91.050781 C 176.347656 92.039062 177.085938 93.046875 177.804688 94.097656 C 177.847656 94.167969 177.894531 94.234375 177.9375 94.300781 C 177.871094 94.234375 177.804688 94.167969 177.734375 94.097656 C 176.792969 93.226562 175.921875 92.328125 175.066406 91.410156 Z M 191.410156 126.824219 C 191.363281 127.207031 191.339844 127.585938 191.273438 127.945312 C 191.164062 128.707031 191.050781 129.449219 190.9375 130.1875 L 190.9375 130.230469 C 190.625 131.195312 189.839844 132.027344 188.875 132.363281 C 188 132.699219 187.148438 133.011719 186.277344 133.324219 C 184.550781 133.929688 182.800781 134.492188 180.984375 134.941406 C 182.621094 134.085938 184.304688 133.347656 186.007812 132.652344 C 186.859375 132.292969 187.710938 131.957031 188.5625 131.644531 C 189.324219 131.375 189.953125 130.769531 190.265625 129.984375 C 190.445312 129.269531 190.625 128.550781 190.824219 127.835938 C 190.914062 127.476562 191.027344 127.117188 191.140625 126.734375 C 191.253906 126.378906 191.363281 126.019531 191.476562 125.660156 C 191.5 126.0625 191.453125 126.445312 191.410156 126.824219 Z M 191.410156 126.824219 " fill-opacity="1" fill-rule="nonzero"/><g clip-path="url(#000a565710)"><path fill="#146c43" d="M 273.539062 91.609375 L 275.351562 100.398438 C 275.867188 101.988281 277.058594 103.265625 278.625 103.851562 L 289.136719 107.863281 L 289.136719 123.800781 L 291.46875 123.800781 L 291.46875 107.773438 L 301.734375 103.871094 C 303.28125 103.265625 304.492188 102.011719 305.007812 100.421875 L 306.824219 91.632812 L 294.855469 96.339844 C 293.242188 96.96875 292.007812 98.335938 291.558594 100.039062 L 291.492188 100.464844 L 291.492188 93.921875 L 301.871094 89.953125 C 303.4375 89.371094 304.628906 88.09375 305.144531 86.5 L 306.957031 77.714844 L 294.988281 82.398438 C 293.351562 83.027344 292.140625 84.414062 291.695312 86.097656 L 291.492188 87.308594 L 291.492188 80.023438 L 302.003906 76.011719 C 303.550781 75.40625 304.761719 74.148438 305.277344 72.558594 L 307.09375 63.773438 L 295.125 68.480469 C 293.507812 69.105469 292.277344 70.472656 291.828125 72.175781 L 291.492188 74.148438 L 291.492188 66.171875 C 293.152344 64.308594 296.066406 60.96875 296.9375 59.511719 C 298.195312 57.429688 290.328125 45.90625 290.328125 45.90625 C 290.328125 45.90625 282.457031 57.429688 283.691406 59.511719 C 284.566406 60.96875 287.503906 64.308594 289.160156 66.171875 L 289.160156 72.625 L 289.09375 72.15625 C 288.644531 70.472656 287.414062 69.085938 285.796875 68.457031 L 273.828125 63.75 L 275.644531 72.535156 C 276.160156 74.128906 277.347656 75.40625 278.917969 75.988281 L 289.183594 79.886719 L 289.183594 87.285156 L 288.980469 86.074219 C 288.535156 84.394531 287.300781 83.003906 285.6875 82.375 L 273.71875 77.691406 L 275.53125 86.476562 C 276.046875 88.070312 277.234375 89.347656 278.804688 89.929688 L 289.207031 93.898438 L 289.207031 102.035156 L 288.871094 100.015625 C 288.421875 98.335938 287.1875 96.96875 285.574219 96.320312 Z M 287.324219 90.691406 C 285.53125 90.242188 283.78125 89.683594 282.03125 89.054688 C 281.160156 88.742188 280.308594 88.429688 279.457031 88.09375 C 278.492188 87.734375 277.707031 86.925781 277.394531 85.941406 L 277.371094 85.894531 C 277.257812 85.15625 277.125 84.394531 277.035156 83.652344 C 276.988281 83.273438 276.945312 82.890625 276.898438 82.53125 C 276.855469 82.152344 276.808594 81.769531 276.789062 81.390625 C 276.921875 81.75 277.035156 82.105469 277.125 82.488281 C 277.234375 82.847656 277.347656 83.207031 277.460938 83.585938 C 277.660156 84.304688 277.839844 85.019531 278.019531 85.738281 L 278.019531 85.761719 C 278.335938 86.523438 278.960938 87.128906 279.722656 87.398438 C 280.597656 87.734375 281.449219 88.046875 282.28125 88.40625 C 284.003906 89.101562 285.6875 89.839844 287.324219 90.691406 Z M 287.457031 76.75 C 285.664062 76.300781 283.914062 75.742188 282.167969 75.113281 C 281.292969 74.800781 280.441406 74.484375 279.566406 74.148438 C 278.601562 73.792969 277.820312 72.984375 277.503906 72 L 277.503906 71.976562 C 277.371094 71.234375 277.257812 70.472656 277.167969 69.734375 C 277.125 69.351562 277.078125 68.972656 277.035156 68.613281 C 276.988281 68.230469 276.945312 67.851562 276.921875 67.46875 C 277.058594 67.828125 277.148438 68.1875 277.257812 68.570312 C 277.371094 68.925781 277.484375 69.285156 277.574219 69.667969 C 277.773438 70.382812 277.953125 71.101562 278.132812 71.820312 C 278.445312 72.582031 279.074219 73.1875 279.835938 73.476562 C 280.6875 73.792969 281.539062 74.128906 282.390625 74.484375 C 284.140625 75.160156 285.820312 75.898438 287.457031 76.75 Z M 293.398438 76.75 C 295.035156 75.898438 296.714844 75.136719 298.417969 74.441406 C 299.269531 74.082031 300.121094 73.746094 300.972656 73.433594 C 301.734375 73.164062 302.339844 72.582031 302.65625 71.820312 L 302.675781 71.773438 C 302.675781 71.773438 302.675781 71.796875 302.65625 71.796875 C 302.835938 71.078125 303.035156 70.339844 303.238281 69.621094 C 303.351562 69.261719 303.460938 68.90625 303.574219 68.523438 C 303.6875 68.164062 303.796875 67.785156 303.910156 67.425781 C 303.886719 67.804688 303.84375 68.1875 303.796875 68.570312 C 303.753906 68.949219 303.730469 69.332031 303.664062 69.6875 C 303.550781 70.453125 303.4375 71.191406 303.328125 71.929688 L 303.328125 71.953125 C 303.011719 72.917969 302.230469 73.746094 301.265625 74.105469 C 300.414062 74.441406 299.539062 74.753906 298.6875 75.070312 C 296.9375 75.742188 295.191406 76.300781 293.398438 76.75 Z M 293.261719 90.691406 C 294.898438 89.839844 296.582031 89.078125 298.285156 88.382812 C 299.136719 88.023438 299.988281 87.6875 300.839844 87.375 C 301.601562 87.105469 302.25 86.5 302.542969 85.714844 C 302.722656 85 302.902344 84.28125 303.101562 83.5625 C 303.191406 83.207031 303.304688 82.824219 303.417969 82.464844 C 303.527344 82.105469 303.640625 81.726562 303.753906 81.367188 C 303.730469 81.75 303.6875 82.128906 303.640625 82.511719 C 303.597656 82.890625 303.550781 83.273438 303.507812 83.632812 C 303.394531 84.371094 303.28125 85.132812 303.171875 85.871094 L 303.171875 85.917969 C 302.855469 86.882812 302.070312 87.710938 301.109375 88.070312 C 300.234375 88.40625 299.382812 88.71875 298.507812 89.035156 C 296.804688 89.683594 295.054688 90.242188 293.261719 90.691406 Z M 293.128906 104.632812 C 294.765625 103.78125 296.445312 103.042969 298.148438 102.347656 C 299 101.988281 299.851562 101.652344 300.703125 101.339844 C 301.46875 101.070312 302.09375 100.464844 302.410156 99.703125 C 302.585938 98.964844 302.765625 98.246094 302.96875 97.527344 C 303.082031 97.171875 303.191406 96.8125 303.304688 96.429688 C 303.417969 96.070312 303.527344 95.714844 303.640625 95.355469 C 303.617188 95.734375 303.574219 96.117188 303.527344 96.476562 C 303.484375 96.855469 303.460938 97.238281 303.394531 97.597656 C 303.28125 98.359375 303.171875 99.097656 303.058594 99.835938 L 303.058594 99.859375 C 302.746094 100.824219 301.960938 101.652344 300.996094 102.011719 C 300.144531 102.347656 299.269531 102.660156 298.417969 102.976562 C 296.691406 103.625 294.921875 104.1875 293.128906 104.632812 Z M 290.507812 63.726562 C 290.4375 63.792969 290.371094 63.863281 290.304688 63.929688 C 290.347656 63.863281 290.394531 63.792969 290.4375 63.726562 C 291.15625 62.671875 291.894531 61.664062 292.679688 60.679688 C 293.128906 60.140625 293.441406 59.667969 293.621094 59.066406 C 293.800781 58.480469 293.824219 57.855469 293.710938 57.269531 C 293.667969 56.980469 293.554688 56.6875 293.441406 56.398438 L 293.015625 55.5 L 292.121094 53.707031 C 291.515625 52.519531 290.910156 51.332031 290.328125 50.097656 C 291.15625 51.152344 291.941406 52.25 292.65625 53.394531 C 293.015625 53.953125 293.351562 54.558594 293.667969 55.140625 C 293.824219 55.433594 293.980469 55.746094 294.136719 56.0625 C 294.292969 56.398438 294.40625 56.734375 294.496094 57.09375 C 294.628906 57.808594 294.585938 58.570312 294.339844 59.265625 C 294.113281 59.960938 293.644531 60.589844 293.171875 61.035156 C 292.300781 61.980469 291.402344 62.875 290.507812 63.726562 Z M 276.675781 95.355469 C 276.808594 95.714844 276.898438 96.070312 277.011719 96.429688 C 277.125 96.789062 277.234375 97.148438 277.324219 97.527344 C 277.527344 98.246094 277.707031 98.964844 277.886719 99.679688 C 278.199219 100.441406 278.828125 101.046875 279.589844 101.339844 C 280.441406 101.675781 281.292969 101.988281 282.144531 102.347656 C 283.847656 103.042969 285.53125 103.804688 287.167969 104.632812 C 285.371094 104.1875 283.625 103.625 281.875 103.019531 C 281 102.707031 280.148438 102.394531 279.277344 102.058594 C 278.3125 101.699219 277.527344 100.890625 277.214844 99.925781 L 277.214844 99.882812 C 277.078125 99.144531 276.96875 98.378906 276.878906 97.640625 C 276.808594 97.261719 276.789062 96.902344 276.742188 96.519531 C 276.765625 96.117188 276.699219 95.734375 276.675781 95.355469 Z M 276.675781 95.355469 " fill-opacity="1" fill-rule="nonzero"/></g><path fill="#146c43" d="M 236.507812 106.785156 L 238.324219 115.574219 C 238.839844 117.164062 240.027344 118.441406 241.597656 119.023438 L 252.109375 123.039062 L 252.109375 138.972656 L 254.441406 138.972656 L 254.441406 122.949219 L 264.707031 119.046875 C 266.253906 118.441406 267.464844 117.1875 267.980469 115.59375 L 269.792969 106.808594 L 257.824219 111.515625 C 256.1875 112.144531 254.976562 113.511719 254.53125 115.214844 L 254.460938 115.640625 L 254.460938 109.09375 L 264.839844 105.128906 C 266.410156 104.542969 267.597656 103.265625 268.113281 101.675781 L 269.929688 92.890625 L 257.960938 97.574219 C 256.324219 98.203125 255.113281 99.589844 254.664062 101.273438 L 254.460938 102.484375 L 254.460938 95.199219 L 264.976562 91.183594 C 266.523438 90.582031 267.730469 89.324219 268.246094 87.734375 L 270.0625 78.945312 L 258.09375 83.652344 C 256.480469 84.28125 255.246094 85.648438 254.796875 87.351562 L 254.460938 89.324219 L 254.460938 81.34375 C 256.121094 79.484375 259.035156 76.144531 259.910156 74.6875 C 261.164062 72.601562 253.296875 61.082031 253.296875 61.082031 C 253.296875 61.082031 245.429688 72.601562 246.660156 74.6875 C 247.535156 76.144531 250.472656 79.484375 252.132812 81.34375 L 252.132812 87.800781 L 252.0625 87.328125 C 251.617188 85.648438 250.382812 84.257812 248.769531 83.632812 L 236.800781 78.925781 L 238.613281 87.710938 C 239.128906 89.300781 240.320312 90.582031 241.886719 91.164062 L 252.152344 95.0625 L 252.152344 102.460938 L 251.953125 101.25 C 251.503906 99.570312 250.269531 98.179688 248.65625 97.550781 L 236.6875 92.867188 L 238.503906 101.652344 C 239.019531 103.246094 240.207031 104.523438 241.777344 105.105469 L 252.175781 109.074219 L 252.175781 117.210938 L 251.839844 115.191406 C 251.390625 113.511719 250.160156 112.144531 248.542969 111.492188 Z M 250.316406 105.867188 C 248.523438 105.417969 246.773438 104.859375 245.027344 104.230469 C 244.152344 103.917969 243.300781 103.601562 242.449219 103.265625 C 241.484375 102.910156 240.699219 102.101562 240.386719 101.117188 L 240.363281 101.070312 C 240.25 100.332031 240.117188 99.570312 240.027344 98.828125 C 239.980469 98.449219 239.9375 98.066406 239.894531 97.707031 C 239.847656 97.328125 239.804688 96.945312 239.78125 96.566406 C 239.914062 96.921875 240.027344 97.28125 240.117188 97.664062 C 240.230469 98.023438 240.339844 98.378906 240.453125 98.761719 C 240.65625 99.480469 240.835938 100.195312 241.011719 100.914062 L 241.011719 100.9375 C 241.328125 101.699219 241.953125 102.304688 242.71875 102.570312 C 243.589844 102.910156 244.441406 103.222656 245.273438 103.582031 C 247 104.253906 248.679688 105.015625 250.316406 105.867188 Z M 250.449219 91.925781 C 248.65625 91.476562 246.910156 90.917969 245.160156 90.289062 C 244.285156 89.976562 243.433594 89.660156 242.558594 89.324219 C 241.597656 88.964844 240.8125 88.160156 240.496094 87.171875 L 240.496094 87.152344 C 240.363281 86.410156 240.25 85.648438 240.160156 84.910156 C 240.117188 84.527344 240.070312 84.148438 240.027344 83.789062 C 239.980469 83.40625 239.9375 83.027344 239.914062 82.644531 C 240.050781 83.003906 240.140625 83.363281 240.25 83.742188 C 240.363281 84.101562 240.476562 84.460938 240.566406 84.84375 C 240.765625 85.558594 240.945312 86.277344 241.125 86.992188 C 241.4375 87.757812 242.066406 88.359375 242.828125 88.652344 C 243.679688 88.964844 244.53125 89.300781 245.382812 89.660156 C 247.132812 90.332031 248.8125 91.074219 250.449219 91.925781 Z M 256.390625 91.925781 C 258.027344 91.074219 259.707031 90.3125 261.410156 89.617188 C 262.261719 89.257812 263.113281 88.921875 263.964844 88.609375 C 264.730469 88.339844 265.332031 87.753906 265.648438 86.992188 L 265.671875 86.949219 C 265.671875 86.949219 265.671875 86.972656 265.648438 86.972656 C 265.828125 86.253906 266.027344 85.515625 266.230469 84.796875 C 266.34375 84.4375 266.453125 84.078125 266.566406 83.699219 C 266.679688 83.339844 266.789062 82.960938 266.902344 82.601562 C 266.878906 82.980469 266.835938 83.363281 266.789062 83.742188 C 266.746094 84.125 266.722656 84.503906 266.65625 84.863281 C 266.542969 85.625 266.433594 86.367188 266.320312 87.105469 L 266.320312 87.128906 C 266.007812 88.09375 265.222656 88.921875 264.257812 89.28125 C 263.40625 89.617188 262.53125 89.929688 261.679688 90.242188 C 259.933594 90.917969 258.160156 91.476562 256.390625 91.925781 Z M 256.253906 105.867188 C 257.890625 105.015625 259.574219 104.253906 261.277344 103.558594 C 262.128906 103.199219 262.980469 102.863281 263.832031 102.550781 C 264.59375 102.28125 265.242188 101.675781 265.535156 100.890625 C 265.714844 100.171875 265.894531 99.457031 266.097656 98.738281 C 266.1875 98.378906 266.296875 98 266.410156 97.640625 C 266.523438 97.28125 266.632812 96.902344 266.746094 96.542969 C 266.722656 96.921875 266.679688 97.304688 266.632812 97.6875 C 266.589844 98.066406 266.542969 98.449219 266.5 98.804688 C 266.386719 99.546875 266.273438 100.308594 266.164062 101.046875 L 266.164062 101.09375 C 265.847656 102.058594 265.066406 102.886719 264.101562 103.246094 C 263.226562 103.582031 262.375 103.894531 261.5 104.207031 C 259.796875 104.859375 258.050781 105.417969 256.253906 105.867188 Z M 256.121094 119.808594 C 257.757812 118.957031 259.4375 118.21875 261.140625 117.523438 C 261.992188 117.164062 262.847656 116.828125 263.699219 116.515625 C 264.460938 116.246094 265.085938 115.640625 265.402344 114.878906 C 265.582031 114.136719 265.757812 113.421875 265.960938 112.703125 C 266.074219 112.34375 266.1875 111.988281 266.296875 111.605469 C 266.410156 111.246094 266.523438 110.886719 266.632812 110.53125 C 266.613281 110.910156 266.566406 111.292969 266.523438 111.648438 C 266.476562 112.03125 266.453125 112.414062 266.386719 112.769531 C 266.273438 113.53125 266.164062 114.273438 266.050781 115.011719 L 266.050781 115.035156 C 265.738281 116 264.953125 116.828125 263.988281 117.1875 C 263.136719 117.523438 262.261719 117.835938 261.410156 118.152344 C 259.664062 118.800781 257.914062 119.359375 256.121094 119.808594 Z M 253.5 78.902344 C 253.429688 78.96875 253.363281 79.035156 253.296875 79.105469 C 253.339844 79.035156 253.386719 78.96875 253.429688 78.902344 C 254.148438 77.847656 254.886719 76.839844 255.671875 75.851562 C 256.121094 75.316406 256.433594 74.84375 256.613281 74.238281 C 256.792969 73.65625 256.816406 73.027344 256.703125 72.445312 C 256.660156 72.15625 256.546875 71.863281 256.433594 71.570312 L 256.007812 70.675781 L 255.113281 68.882812 C 254.507812 67.695312 253.902344 66.507812 253.320312 65.273438 C 254.148438 66.328125 254.933594 67.425781 255.652344 68.570312 C 256.007812 69.128906 256.34375 69.734375 256.660156 70.316406 C 256.816406 70.609375 256.972656 70.921875 257.128906 71.234375 C 257.285156 71.570312 257.398438 71.910156 257.488281 72.265625 C 257.621094 72.984375 257.578125 73.746094 257.332031 74.441406 C 257.109375 75.136719 256.636719 75.765625 256.167969 76.210938 C 255.292969 77.152344 254.394531 78.050781 253.5 78.902344 Z M 239.667969 110.53125 C 239.804688 110.886719 239.894531 111.246094 240.003906 111.605469 C 240.117188 111.964844 240.230469 112.324219 240.320312 112.703125 C 240.519531 113.421875 240.699219 114.136719 240.878906 114.855469 C 241.191406 115.617188 241.820312 116.222656 242.582031 116.515625 C 243.433594 116.851562 244.285156 117.164062 245.136719 117.523438 C 246.839844 118.21875 248.523438 118.980469 250.160156 119.808594 C 248.367188 119.359375 246.617188 118.800781 244.867188 118.195312 C 243.996094 117.882812 243.144531 117.566406 242.269531 117.230469 C 241.304688 116.871094 240.519531 116.066406 240.207031 115.101562 L 240.207031 115.058594 C 240.070312 114.316406 239.960938 113.554688 239.871094 112.816406 C 239.804688 112.433594 239.78125 112.078125 239.734375 111.695312 C 239.734375 111.292969 239.691406 110.910156 239.667969 110.53125 Z M 239.667969 110.53125 " fill-opacity="1" fill-rule="nonzero"/><path fill="#146c43" d="M 199.5 121.960938 L 201.316406 130.746094 C 201.832031 132.339844 203.019531 133.617188 204.589844 134.199219 L 215.101562 138.210938 L 215.101562 154.148438 L 217.433594 154.148438 L 217.433594 138.121094 L 227.699219 134.222656 C 229.246094 133.617188 230.457031 132.363281 230.972656 130.769531 L 232.785156 121.984375 L 220.816406 126.691406 C 219.203125 127.320312 217.972656 128.6875 217.523438 130.390625 L 217.457031 130.816406 L 217.457031 124.269531 L 227.832031 120.300781 C 229.402344 119.71875 230.589844 118.441406 231.105469 116.851562 L 232.921875 108.0625 L 220.953125 112.75 C 219.316406 113.375 218.105469 114.765625 217.65625 116.445312 L 217.457031 117.65625 L 217.457031 110.371094 L 227.96875 106.359375 C 229.515625 105.753906 230.726562 104.5 231.242188 102.910156 L 233.054688 94.121094 L 221.085938 98.828125 C 219.472656 99.457031 218.238281 100.824219 217.792969 102.527344 L 217.457031 104.5 L 217.457031 96.476562 C 219.113281 94.613281 222.027344 91.273438 222.902344 89.816406 C 224.15625 87.734375 216.289062 76.210938 216.289062 76.210938 C 216.289062 76.210938 208.421875 87.734375 209.65625 89.816406 C 210.527344 91.273438 213.464844 94.613281 215.125 96.476562 L 215.125 102.929688 L 215.035156 102.460938 C 214.585938 100.777344 213.351562 99.390625 211.738281 98.761719 L 199.769531 94.054688 L 201.585938 102.839844 C 202.101562 104.433594 203.289062 105.710938 204.859375 106.292969 L 215.125 110.191406 L 215.125 117.589844 L 214.921875 116.378906 C 214.472656 114.699219 213.242188 113.308594 211.628906 112.679688 L 199.65625 107.996094 L 201.472656 116.785156 C 201.988281 118.375 203.175781 119.652344 204.746094 120.234375 L 215.144531 124.203125 L 215.144531 132.339844 L 214.808594 130.320312 C 214.363281 128.640625 213.128906 127.273438 211.515625 126.625 Z M 213.308594 121.042969 C 211.515625 120.59375 209.765625 120.035156 208.019531 119.40625 C 207.144531 119.09375 206.292969 118.777344 205.441406 118.441406 C 204.476562 118.082031 203.691406 117.277344 203.378906 116.289062 L 203.355469 116.246094 C 203.242188 115.503906 203.109375 114.742188 203.019531 114.003906 C 202.976562 113.621094 202.929688 113.242188 202.886719 112.882812 C 202.839844 112.503906 202.796875 112.121094 202.773438 111.738281 C 202.90625 112.097656 203.019531 112.457031 203.109375 112.839844 C 203.222656 113.195312 203.332031 113.554688 203.445312 113.9375 C 203.648438 114.652344 203.828125 115.371094 204.007812 116.089844 L 204.007812 116.109375 C 204.320312 116.871094 204.949219 117.476562 205.710938 117.746094 C 206.582031 118.082031 207.4375 118.398438 208.265625 118.757812 C 209.992188 119.429688 211.648438 120.191406 213.308594 121.042969 Z M 213.441406 107.101562 C 211.648438 106.652344 209.902344 106.089844 208.152344 105.464844 C 207.277344 105.148438 206.425781 104.835938 205.554688 104.5 C 204.589844 104.140625 203.804688 103.335938 203.492188 102.347656 L 203.492188 102.324219 C 203.355469 101.585938 203.242188 100.824219 203.15625 100.085938 C 203.109375 99.703125 203.066406 99.320312 203.019531 98.964844 C 202.976562 98.582031 202.929688 98.203125 202.90625 97.820312 C 203.042969 98.179688 203.132812 98.539062 203.242188 98.917969 C 203.355469 99.277344 203.46875 99.636719 203.558594 100.015625 C 203.757812 100.734375 203.9375 101.453125 204.117188 102.167969 C 204.433594 102.929688 205.058594 103.535156 205.820312 103.828125 C 206.671875 104.140625 207.523438 104.476562 208.378906 104.835938 C 210.101562 105.507812 211.785156 106.25 213.441406 107.101562 Z M 219.359375 107.101562 C 220.996094 106.25 222.679688 105.484375 224.382812 104.792969 C 225.234375 104.433594 226.085938 104.097656 226.9375 103.78125 C 227.699219 103.511719 228.304688 102.929688 228.617188 102.167969 L 228.640625 102.125 C 228.640625 102.125 228.640625 102.144531 228.617188 102.144531 C 228.796875 101.429688 229 100.6875 229.199219 99.972656 C 229.3125 99.613281 229.425781 99.253906 229.535156 98.875 C 229.648438 98.515625 229.761719 98.132812 229.875 97.773438 C 229.851562 98.15625 229.804688 98.539062 229.761719 98.917969 C 229.714844 99.300781 229.695312 99.679688 229.625 100.039062 C 229.515625 100.800781 229.402344 101.542969 229.289062 102.28125 L 229.289062 102.304688 C 228.976562 103.265625 228.191406 104.097656 227.226562 104.453125 C 226.375 104.792969 225.503906 105.105469 224.652344 105.417969 C 222.902344 106.089844 221.152344 106.652344 219.359375 107.101562 Z M 219.226562 121.042969 C 220.863281 120.191406 222.542969 119.429688 224.246094 118.734375 C 225.097656 118.375 225.949219 118.039062 226.800781 117.726562 C 227.5625 117.457031 228.214844 116.851562 228.503906 116.066406 C 228.683594 115.347656 228.863281 114.632812 229.066406 113.914062 C 229.15625 113.554688 229.269531 113.175781 229.378906 112.816406 C 229.492188 112.457031 229.605469 112.078125 229.714844 111.71875 C 229.695312 112.097656 229.648438 112.480469 229.605469 112.859375 C 229.558594 113.242188 229.515625 113.621094 229.46875 113.980469 C 229.359375 114.722656 229.246094 115.484375 229.132812 116.222656 L 229.132812 116.269531 C 228.820312 117.230469 228.035156 118.0625 227.070312 118.417969 C 226.195312 118.757812 225.34375 119.070312 224.472656 119.382812 C 222.765625 120.035156 221.019531 120.570312 219.226562 121.042969 Z M 219.113281 134.984375 C 220.75 134.132812 222.429688 133.394531 224.136719 132.699219 C 224.988281 132.339844 225.839844 132.003906 226.691406 131.6875 C 227.453125 131.421875 228.078125 130.816406 228.394531 130.054688 C 228.574219 129.3125 228.753906 128.597656 228.953125 127.878906 C 229.066406 127.519531 229.179688 127.160156 229.289062 126.78125 C 229.402344 126.421875 229.515625 126.0625 229.625 125.703125 C 229.605469 126.085938 229.558594 126.464844 229.515625 126.824219 C 229.46875 127.207031 229.449219 127.585938 229.378906 127.945312 C 229.269531 128.707031 229.15625 129.449219 229.042969 130.1875 L 229.042969 130.210938 C 228.730469 131.175781 227.945312 132.003906 226.980469 132.363281 C 226.128906 132.699219 225.253906 133.011719 224.402344 133.324219 C 222.65625 133.953125 220.90625 134.515625 219.113281 134.984375 Z M 216.46875 94.078125 C 216.402344 94.144531 216.335938 94.210938 216.265625 94.277344 C 216.3125 94.210938 216.355469 94.144531 216.402344 94.078125 C 217.117188 93.023438 217.859375 92.015625 218.644531 91.027344 C 219.089844 90.492188 219.40625 90.019531 219.585938 89.414062 C 219.765625 88.832031 219.785156 88.203125 219.675781 87.621094 C 219.628906 87.328125 219.515625 87.039062 219.40625 86.746094 L 218.980469 85.851562 L 218.082031 84.058594 C 217.476562 82.871094 216.871094 81.679688 216.289062 80.449219 C 217.117188 81.503906 217.902344 82.601562 218.621094 83.742188 C 218.980469 84.304688 219.316406 84.910156 219.628906 85.492188 C 219.785156 85.785156 219.941406 86.097656 220.101562 86.410156 C 220.257812 86.746094 220.371094 87.082031 220.457031 87.441406 C 220.59375 88.160156 220.546875 88.921875 220.300781 89.617188 C 220.078125 90.3125 219.605469 90.9375 219.136719 91.386719 C 218.261719 92.328125 217.386719 93.226562 216.46875 94.078125 Z M 202.660156 125.703125 C 202.796875 126.0625 202.886719 126.421875 202.996094 126.78125 C 203.109375 127.140625 203.222656 127.496094 203.3125 127.878906 C 203.511719 128.597656 203.691406 129.3125 203.871094 130.03125 C 204.183594 130.792969 204.8125 131.398438 205.574219 131.6875 C 206.425781 132.027344 207.277344 132.339844 208.128906 132.699219 C 209.835938 133.394531 211.515625 134.15625 213.152344 134.984375 C 211.359375 134.535156 209.609375 133.976562 207.863281 133.371094 C 206.988281 133.058594 206.136719 132.742188 205.261719 132.40625 C 204.296875 132.046875 203.511719 131.242188 203.199219 130.277344 L 203.199219 130.230469 C 203.066406 129.492188 202.953125 128.730469 202.863281 127.992188 C 202.796875 127.609375 202.773438 127.25 202.726562 126.871094 C 202.726562 126.445312 202.683594 126.0625 202.660156 125.703125 Z M 202.660156 125.703125 " fill-opacity="1" fill-rule="nonzero"/><g fill="#146c42" fill-opacity="1"><g transform="translate(82.563955, 291.398506)"><g><path d="M 8.6875 -14.296875 L 10.4375 -14.296875 C 12.164062 -14.296875 13.4375 -14.582031 14.25 -15.15625 C 15.070312 -15.726562 15.484375 -16.628906 15.484375 -17.859375 C 15.484375 -19.078125 15.0625 -19.941406 14.21875 -20.453125 C 13.382812 -20.972656 12.09375 -21.234375 10.34375 -21.234375 L 8.6875 -21.234375 Z M 8.6875 -9.859375 L 8.6875 0 L 3.234375 0 L 3.234375 -25.703125 L 10.71875 -25.703125 C 14.21875 -25.703125 16.800781 -25.066406 18.46875 -23.796875 C 20.144531 -22.523438 20.984375 -20.59375 20.984375 -18 C 20.984375 -16.488281 20.566406 -15.144531 19.734375 -13.96875 C 18.910156 -12.789062 17.734375 -11.867188 16.203125 -11.203125 C 20.078125 -5.421875 22.597656 -1.6875 23.765625 0 L 17.71875 0 L 11.578125 -9.859375 Z M 8.6875 -9.859375 "/></g></g><g transform="translate(106.329578, 291.398506)"><g><path d="M 24.15625 -25.703125 L 24.15625 -9.078125 C 24.15625 -7.171875 23.726562 -5.503906 22.875 -4.078125 C 22.03125 -2.648438 20.800781 -1.550781 19.1875 -0.78125 C 17.582031 -0.0195312 15.6875 0.359375 13.5 0.359375 C 10.195312 0.359375 7.628906 -0.488281 5.796875 -2.1875 C 3.972656 -3.882812 3.0625 -6.203125 3.0625 -9.140625 L 3.0625 -25.703125 L 8.484375 -25.703125 L 8.484375 -9.96875 C 8.484375 -7.988281 8.878906 -6.535156 9.671875 -5.609375 C 10.472656 -4.679688 11.796875 -4.21875 13.640625 -4.21875 C 15.421875 -4.21875 16.710938 -4.679688 17.515625 -5.609375 C 18.316406 -6.546875 18.71875 -8.007812 18.71875 -10 L 18.71875 -25.703125 Z M 24.15625 -25.703125 "/></g></g><g transform="translate(133.540514, 291.398506)"><g><path d="M 8.6875 -14.296875 L 10.4375 -14.296875 C 12.164062 -14.296875 13.4375 -14.582031 14.25 -15.15625 C 15.070312 -15.726562 15.484375 -16.628906 15.484375 -17.859375 C 15.484375 -19.078125 15.0625 -19.941406 14.21875 -20.453125 C 13.382812 -20.972656 12.09375 -21.234375 10.34375 -21.234375 L 8.6875 -21.234375 Z M 8.6875 -9.859375 L 8.6875 0 L 3.234375 0 L 3.234375 -25.703125 L 10.71875 -25.703125 C 14.21875 -25.703125 16.800781 -25.066406 18.46875 -23.796875 C 20.144531 -22.523438 20.984375 -20.59375 20.984375 -18 C 20.984375 -16.488281 20.566406 -15.144531 19.734375 -13.96875 C 18.910156 -12.789062 17.734375 -11.867188 16.203125 -11.203125 C 20.078125 -5.421875 22.597656 -1.6875 23.765625 0 L 17.71875 0 L 11.578125 -9.859375 Z M 8.6875 -9.859375 "/></g></g><g transform="translate(157.306138, 291.398506)"><g><path d="M 18.96875 0 L 17.109375 -6.125 L 7.734375 -6.125 L 5.875 0 L 0 0 L 9.078125 -25.8125 L 15.734375 -25.8125 L 24.84375 0 Z M 15.796875 -10.6875 C 14.078125 -16.226562 13.109375 -19.363281 12.890625 -20.09375 C 12.671875 -20.820312 12.515625 -21.394531 12.421875 -21.8125 C 12.035156 -20.3125 10.929688 -16.601562 9.109375 -10.6875 Z M 15.796875 -10.6875 "/></g></g><g transform="translate(182.144027, 291.398506)"><g><path d="M 3.234375 0 L 3.234375 -25.703125 L 8.6875 -25.703125 L 8.6875 -4.5 L 19.109375 -4.5 L 19.109375 0 Z M 3.234375 0 "/></g></g><g transform="translate(202.481916, 291.398506)"><g/></g><g transform="translate(211.833478, 291.398506)"><g><path d="M 8.59375 0 L 3.234375 0 L 3.234375 -25.703125 L 17.96875 -25.703125 L 17.96875 -21.234375 L 8.59375 -21.234375 L 8.59375 -14.609375 L 17.3125 -14.609375 L 17.3125 -10.15625 L 8.59375 -10.15625 Z M 8.59375 0 "/></g></g><g transform="translate(231.59129, 291.398506)"><g><path d="M 18.96875 0 L 17.109375 -6.125 L 7.734375 -6.125 L 5.875 0 L 0 0 L 9.078125 -25.8125 L 15.734375 -25.8125 L 24.84375 0 Z M 15.796875 -10.6875 C 14.078125 -16.226562 13.109375 -19.363281 12.890625 -20.09375 C 12.671875 -20.820312 12.515625 -21.394531 12.421875 -21.8125 C 12.035156 -20.3125 10.929688 -16.601562 9.109375 -10.6875 Z M 9.515625 -27.75 L 9.515625 -28.234375 C 11.523438 -30.578125 12.898438 -32.335938 13.640625 -33.515625 L 19.65625 -33.515625 L 19.65625 -33.15625 C 19.039062 -32.539062 18 -31.628906 16.53125 -30.421875 C 15.0625 -29.222656 13.910156 -28.332031 13.078125 -27.75 Z M 9.515625 -27.75 "/></g></g><g transform="translate(256.429179, 291.398506)"><g><path d="M 14.15625 -21.53125 C 12.101562 -21.53125 10.515625 -20.757812 9.390625 -19.21875 C 8.265625 -17.675781 7.703125 -15.53125 7.703125 -12.78125 C 7.703125 -7.050781 9.851562 -4.1875 14.15625 -4.1875 C 15.957031 -4.1875 18.140625 -4.632812 20.703125 -5.53125 L 20.703125 -0.96875 C 18.597656 -0.0820312 16.242188 0.359375 13.640625 0.359375 C 9.898438 0.359375 7.039062 -0.773438 5.0625 -3.046875 C 3.082031 -5.316406 2.09375 -8.570312 2.09375 -12.8125 C 2.09375 -15.488281 2.578125 -17.832031 3.546875 -19.84375 C 4.523438 -21.851562 5.925781 -23.390625 7.75 -24.453125 C 9.570312 -25.523438 11.707031 -26.0625 14.15625 -26.0625 C 16.644531 -26.0625 19.148438 -25.460938 21.671875 -24.265625 L 19.921875 -19.828125 C 18.953125 -20.285156 17.984375 -20.679688 17.015625 -21.015625 C 16.046875 -21.359375 15.09375 -21.53125 14.15625 -21.53125 Z M 14.15625 -21.53125 "/></g></g><g transform="translate(279.368631, 291.398506)"><g><path d="M 3.234375 0 L 3.234375 -25.703125 L 8.6875 -25.703125 L 8.6875 0 Z M 3.234375 0 "/></g></g><g transform="translate(291.286599, 291.398506)"><g><path d="M 3.234375 0 L 3.234375 -25.703125 L 8.6875 -25.703125 L 8.6875 -4.5 L 19.109375 -4.5 L 19.109375 0 Z M 3.234375 0 "/></g></g></g><g fill="#146c42" fill-opacity="1"><g transform="translate(112.681141, 317.098515)"><g><path d="M 7.375 0 L 6.65625 -2.375 L 3.015625 -2.375 L 2.28125 0 L 0 0 L 3.53125 -10.03125 L 6.125 -10.03125 L 9.65625 0 Z M 6.140625 -4.15625 C 5.472656 -6.3125 5.097656 -7.53125 5.015625 -7.8125 C 4.929688 -8.09375 4.867188 -8.316406 4.828125 -8.484375 C 4.679688 -7.898438 4.253906 -6.457031 3.546875 -4.15625 Z M 6.140625 -4.15625 "/></g></g></g><g fill="#146c42" fill-opacity="1"><g transform="translate(122.334929, 317.098515)"><g><path d="M 5.046875 -5.609375 L 9.015625 -5.609375 L 9.015625 -0.4375 C 8.367188 -0.21875 7.757812 -0.0664062 7.1875 0.015625 C 6.625 0.0976562 6.050781 0.140625 5.46875 0.140625 C 3.957031 0.140625 2.800781 -0.300781 2 -1.1875 C 1.207031 -2.070312 0.8125 -3.347656 0.8125 -5.015625 C 0.8125 -6.628906 1.269531 -7.882812 2.1875 -8.78125 C 3.113281 -9.6875 4.394531 -10.140625 6.03125 -10.140625 C 7.0625 -10.140625 8.050781 -9.929688 9 -9.515625 L 8.296875 -7.828125 C 7.566406 -8.191406 6.804688 -8.375 6.015625 -8.375 C 5.109375 -8.375 4.378906 -8.066406 3.828125 -7.453125 C 3.273438 -6.835938 3 -6.007812 3 -4.96875 C 3 -3.882812 3.21875 -3.054688 3.65625 -2.484375 C 4.101562 -1.910156 4.75 -1.625 5.59375 -1.625 C 6.039062 -1.625 6.492188 -1.671875 6.953125 -1.765625 L 6.953125 -3.84375 L 5.046875 -3.84375 Z M 5.046875 -5.609375 "/></g></g></g><g fill="#146c42" fill-opacity="1"><g transform="translate(132.466967, 317.098515)"><g><path d="M 3.375 -5.5625 L 4.0625 -5.5625 C 4.726562 -5.5625 5.21875 -5.671875 5.53125 -5.890625 C 5.851562 -6.117188 6.015625 -6.472656 6.015625 -6.953125 C 6.015625 -7.421875 5.851562 -7.753906 5.53125 -7.953125 C 5.207031 -8.160156 4.703125 -8.265625 4.015625 -8.265625 L 3.375 -8.265625 Z M 3.375 -3.828125 L 3.375 0 L 1.265625 0 L 1.265625 -10 L 4.171875 -10 C 5.523438 -10 6.523438 -9.75 7.171875 -9.25 C 7.828125 -8.757812 8.15625 -8.007812 8.15625 -7 C 8.15625 -6.414062 7.992188 -5.894531 7.671875 -5.4375 C 7.347656 -4.976562 6.890625 -4.617188 6.296875 -4.359375 C 7.804688 -2.109375 8.789062 -0.65625 9.25 0 L 6.890625 0 L 4.5 -3.828125 Z M 3.375 -3.828125 "/></g></g></g><g fill="#146c42" fill-opacity="1"><g transform="translate(141.703996, 317.098515)"><g><path d="M 1.265625 0 L 1.265625 -10 L 3.375 -10 L 3.375 0 Z M 1.265625 0 "/></g></g></g><g fill="#146c42" fill-opacity="1"><g transform="translate(146.336175, 317.098515)"><g><path d="M 5.5 -8.375 C 4.707031 -8.375 4.09375 -8.070312 3.65625 -7.46875 C 3.21875 -6.875 3 -6.039062 3 -4.96875 C 3 -2.738281 3.832031 -1.625 5.5 -1.625 C 6.207031 -1.625 7.054688 -1.800781 8.046875 -2.15625 L 8.046875 -0.375 C 7.234375 -0.03125 6.320312 0.140625 5.3125 0.140625 C 3.851562 0.140625 2.738281 -0.300781 1.96875 -1.1875 C 1.195312 -2.070312 0.8125 -3.335938 0.8125 -4.984375 C 0.8125 -6.023438 1 -6.9375 1.375 -7.71875 C 1.757812 -8.5 2.304688 -9.097656 3.015625 -9.515625 C 3.722656 -9.929688 4.550781 -10.140625 5.5 -10.140625 C 6.46875 -10.140625 7.441406 -9.90625 8.421875 -9.4375 L 7.75 -7.71875 C 7.375 -7.894531 6.992188 -8.046875 6.609375 -8.171875 C 6.234375 -8.304688 5.863281 -8.375 5.5 -8.375 Z M 5.5 -8.375 "/></g></g></g><g fill="#146c42" fill-opacity="1"><g transform="translate(155.252095, 317.098515)"><g><path d="M 9.390625 -10 L 9.390625 -3.53125 C 9.390625 -2.789062 9.222656 -2.140625 8.890625 -1.578125 C 8.566406 -1.023438 8.09375 -0.597656 7.46875 -0.296875 C 6.84375 -0.00390625 6.101562 0.140625 5.25 0.140625 C 3.96875 0.140625 2.96875 -0.1875 2.25 -0.84375 C 1.539062 -1.507812 1.1875 -2.414062 1.1875 -3.5625 L 1.1875 -10 L 3.296875 -10 L 3.296875 -3.875 C 3.296875 -3.101562 3.453125 -2.535156 3.765625 -2.171875 C 4.078125 -1.816406 4.59375 -1.640625 5.3125 -1.640625 C 6 -1.640625 6.5 -1.820312 6.8125 -2.1875 C 7.125 -2.550781 7.28125 -3.117188 7.28125 -3.890625 L 7.28125 -10 Z M 9.390625 -10 "/></g></g></g><g fill="#146c42" fill-opacity="1"><g transform="translate(165.82822, 317.098515)"><g><path d="M 1.265625 0 L 1.265625 -10 L 3.375 -10 L 3.375 -1.75 L 7.4375 -1.75 L 7.4375 0 Z M 1.265625 0 "/></g></g></g><g fill="#146c42" fill-opacity="1"><g transform="translate(173.732986, 317.098515)"><g><path d="M 5.109375 0 L 3 0 L 3 -8.234375 L 0.28125 -8.234375 L 0.28125 -10 L 7.828125 -10 L 7.828125 -8.234375 L 5.109375 -8.234375 Z M 5.109375 0 "/></g></g></g><g fill="#146c42" fill-opacity="1"><g transform="translate(181.835883, 317.098515)"><g><path d="M 9.390625 -10 L 9.390625 -3.53125 C 9.390625 -2.789062 9.222656 -2.140625 8.890625 -1.578125 C 8.566406 -1.023438 8.09375 -0.597656 7.46875 -0.296875 C 6.84375 -0.00390625 6.101562 0.140625 5.25 0.140625 C 3.96875 0.140625 2.96875 -0.1875 2.25 -0.84375 C 1.539062 -1.507812 1.1875 -2.414062 1.1875 -3.5625 L 1.1875 -10 L 3.296875 -10 L 3.296875 -3.875 C 3.296875 -3.101562 3.453125 -2.535156 3.765625 -2.171875 C 4.078125 -1.816406 4.59375 -1.640625 5.3125 -1.640625 C 6 -1.640625 6.5 -1.820312 6.8125 -2.1875 C 7.125 -2.550781 7.28125 -3.117188 7.28125 -3.890625 L 7.28125 -10 Z M 9.390625 -10 "/></g></g></g><g fill="#146c42" fill-opacity="1"><g transform="translate(192.412008, 317.098515)"><g><path d="M 3.375 -5.5625 L 4.0625 -5.5625 C 4.726562 -5.5625 5.21875 -5.671875 5.53125 -5.890625 C 5.851562 -6.117188 6.015625 -6.472656 6.015625 -6.953125 C 6.015625 -7.421875 5.851562 -7.753906 5.53125 -7.953125 C 5.207031 -8.160156 4.703125 -8.265625 4.015625 -8.265625 L 3.375 -8.265625 Z M 3.375 -3.828125 L 3.375 0 L 1.265625 0 L 1.265625 -10 L 4.171875 -10 C 5.523438 -10 6.523438 -9.75 7.171875 -9.25 C 7.828125 -8.757812 8.15625 -8.007812 8.15625 -7 C 8.15625 -6.414062 7.992188 -5.894531 7.671875 -5.4375 C 7.347656 -4.976562 6.890625 -4.617188 6.296875 -4.359375 C 7.804688 -2.109375 8.789062 -0.65625 9.25 0 L 6.890625 0 L 4.5 -3.828125 Z M 3.375 -3.828125 "/></g></g></g><g fill="#146c42" fill-opacity="1"><g transform="translate(201.649038, 317.098515)"><g><path d="M 7.375 0 L 6.65625 -2.375 L 3.015625 -2.375 L 2.28125 0 L 0 0 L 3.53125 -10.03125 L 6.125 -10.03125 L 9.65625 0 Z M 6.140625 -4.15625 C 5.472656 -6.3125 5.097656 -7.53125 5.015625 -7.8125 C 4.929688 -8.09375 4.867188 -8.316406 4.828125 -8.484375 C 4.679688 -7.898438 4.253906 -6.457031 3.546875 -4.15625 Z M 6.140625 -4.15625 "/></g></g></g><g fill="#146c42" fill-opacity="1"><g transform="translate(211.302827, 317.098515)"><g/></g></g><g fill="#146c42" fill-opacity="1"><g transform="translate(214.937516, 317.098515)"><g><path d="M 3.34375 0 L 1.265625 0 L 1.265625 -10 L 6.984375 -10 L 6.984375 -8.265625 L 3.34375 -8.265625 L 3.34375 -5.6875 L 6.734375 -5.6875 L 6.734375 -3.953125 L 3.34375 -3.953125 Z M 3.34375 0 "/></g></g></g><g fill="#146c42" fill-opacity="1"><g transform="translate(222.616821, 317.098515)"><g><path d="M 7.375 0 L 6.65625 -2.375 L 3.015625 -2.375 L 2.28125 0 L 0 0 L 3.53125 -10.03125 L 6.125 -10.03125 L 9.65625 0 Z M 6.140625 -4.15625 C 5.472656 -6.3125 5.097656 -7.53125 5.015625 -7.8125 C 4.929688 -8.09375 4.867188 -8.316406 4.828125 -8.484375 C 4.679688 -7.898438 4.253906 -6.457031 3.546875 -4.15625 Z M 6.140625 -4.15625 "/></g></g></g><g fill="#146c42" fill-opacity="1"><g transform="translate(232.27061, 317.098515)"><g><path d="M 5.484375 0 L 3.078125 -7.84375 L 3.015625 -7.84375 C 3.109375 -6.25 3.15625 -5.1875 3.15625 -4.65625 L 3.15625 0 L 1.265625 0 L 1.265625 -10 L 4.140625 -10 L 6.515625 -2.359375 L 6.546875 -2.359375 L 9.0625 -10 L 11.9375 -10 L 11.9375 0 L 9.96875 0 L 9.96875 -4.734375 C 9.96875 -4.953125 9.96875 -5.207031 9.96875 -5.5 C 9.976562 -5.789062 10.007812 -6.566406 10.0625 -7.828125 L 10.015625 -7.828125 L 7.4375 0 Z M 5.484375 0 "/></g></g></g><g fill="#146c42" fill-opacity="1"><g transform="translate(245.463439, 317.098515)"><g><path d="M 1.265625 0 L 1.265625 -10 L 3.375 -10 L 3.375 0 Z M 1.265625 0 "/></g></g></g><g fill="#146c42" fill-opacity="1"><g transform="translate(250.095618, 317.098515)"><g><path d="M 1.265625 0 L 1.265625 -10 L 3.375 -10 L 3.375 -1.75 L 7.4375 -1.75 L 7.4375 0 Z M 1.265625 0 "/></g></g></g><g fill="#146c42" fill-opacity="1"><g transform="translate(258.000383, 317.098515)"><g><path d="M 1.265625 0 L 1.265625 -10 L 3.375 -10 L 3.375 0 Z M 1.265625 0 "/></g></g></g><g fill="#146c42" fill-opacity="1"><g transform="translate(262.632562, 317.098515)"><g><path d="M 7.375 0 L 6.65625 -2.375 L 3.015625 -2.375 L 2.28125 0 L 0 0 L 3.53125 -10.03125 L 6.125 -10.03125 L 9.65625 0 Z M 6.140625 -4.15625 C 5.472656 -6.3125 5.097656 -7.53125 5.015625 -7.8125 C 4.929688 -8.09375 4.867188 -8.316406 4.828125 -8.484375 C 4.679688 -7.898438 4.253906 -6.457031 3.546875 -4.15625 Z M 6.140625 -4.15625 "/></g></g></g><g fill="#146c42" fill-opacity="1"><g transform="translate(272.286351, 317.098515)"><g><path d="M 3.375 -5.5625 L 4.0625 -5.5625 C 4.726562 -5.5625 5.21875 -5.671875 5.53125 -5.890625 C 5.851562 -6.117188 6.015625 -6.472656 6.015625 -6.953125 C 6.015625 -7.421875 5.851562 -7.753906 5.53125 -7.953125 C 5.207031 -8.160156 4.703125 -8.265625 4.015625 -8.265625 L 3.375 -8.265625 Z M 3.375 -3.828125 L 3.375 0 L 1.265625 0 L 1.265625 -10 L 4.171875 -10 C 5.523438 -10 6.523438 -9.75 7.171875 -9.25 C 7.828125 -8.757812 8.15625 -8.007812 8.15625 -7 C 8.15625 -6.414062 7.992188 -5.894531 7.671875 -5.4375 C 7.347656 -4.976562 6.890625 -4.617188 6.296875 -4.359375 C 7.804688 -2.109375 8.789062 -0.65625 9.25 0 L 6.890625 0 L 4.5 -3.828125 Z M 3.375 -3.828125 "/></g></g></g></svg>